<?xml version="1.0" encoding="UTF-8" standalone="no"?>
<!-- Created with Inkscape (http://www.inkscape.org/) -->

<svg
   xmlns:dc="http://purl.org/dc/elements/1.1/"
   xmlns:cc="http://creativecommons.org/ns#"
   xmlns:rdf="http://www.w3.org/1999/02/22-rdf-syntax-ns#"
   xmlns:svg="http://www.w3.org/2000/svg"
   xmlns="http://www.w3.org/2000/svg"
   xmlns:sodipodi="http://sodipodi.sourceforge.net/DTD/sodipodi-0.dtd"
   xmlns:inkscape="http://www.inkscape.org/namespaces/inkscape"
   inkscape:export-ydpi="300.56668"
   inkscape:export-xdpi="300.56668"
   sodipodi:docname="insolence.svg"
   inkscape:version="0.91 r13725"
   version="1.1"
   id="svg2"
   viewBox="0 0 184.25196 49.606298"
   height="14mm"
   width="52mm">
  <sodipodi:namedview
     fit-margin-bottom="0"
     fit-margin-right="0"
     fit-margin-left="0"
     fit-margin-top="0"
     inkscape:window-maximized="1"
     inkscape:window-y="0"
     inkscape:window-x="0"
     inkscape:window-height="744"
     inkscape:window-width="1366"
     showgrid="false"
     inkscape:current-layer="layer1"
     inkscape:document-units="px"
     inkscape:cy="39.32735"
     inkscape:cx="72.977363"
     inkscape:zoom="3.959798"
     inkscape:pageshadow="2"
     inkscape:pageopacity="0"
     borderopacity="1.0"
     bordercolor="#666666"
     pagecolor="#ffffff"
     id="base" />
  <defs
     id="defs4" />
   <g
     transform="translate(-3.0297073,-1001.2022)"
     id="layer1"
     inkscape:groupmode="layer"
     inkscape:label="Layer 1">
    <path
       sodipodi:nodetypes="ccccc"
       d="m 5.7693794,1038.4775 4.8800006,0 0,-20.68 -4.8800006,0 z"
       style="font-style:normal;font-variant:normal;font-weight:600;font-stretch:normal;font-size:medium;line-height:125%;font-family:Metropolis;-inkscape-font-specification:'Metropolis Semi-Bold';letter-spacing:0px;word-spacing:0px;fill:#ffffff;fill-opacity:1;stroke:none;stroke-width:1px;stroke-linecap:butt;stroke-linejoin:miter;stroke-opacity:1"
       id="path4196"
       inkscape:connector-curvature="0"
       inkscape:export-xdpi="299.75882"
       inkscape:export-ydpi="299.75882" />
    <path
       d="m 27.36188,1017.3175 c -2.72,0 -5.12,1.32 -6.4,3.24 l 0,-2.76 -4.88,0 0,20.68 4.88,0 0,-13.08 c 0.32,-2.2 2.44,-3.92 5,-3.92 2.56,0 4.36,2 4.36,4.8 l 0,12.2 4.72,0 0,-13.16 c 0,-4.68 -3.16,-8 -7.68,-8 z"
       style="font-style:normal;font-variant:normal;font-weight:600;font-stretch:normal;font-size:medium;line-height:125%;font-family:Metropolis;-inkscape-font-specification:'Metropolis Semi-Bold';letter-spacing:0px;word-spacing:0px;fill:#ffffff;fill-opacity:1;stroke:none;stroke-width:1px;stroke-linecap:butt;stroke-linejoin:miter;stroke-opacity:1"
       id="path4198"
       inkscape:connector-curvature="0"
       inkscape:export-xdpi="299.75882"
       inkscape:export-ydpi="299.75882" />
    <path
       d="m 47.94063,1038.9575 c 4.84,0 8.12,-2.56 8.12,-6.52 0,-4.32 -3.76,-5.52 -7.24,-6.48 -3.16,-0.92 -4.24,-1.32 -4.24,-2.64 0,-1.16 1.32,-1.84 3.04,-1.84 1.8,0 3.92,0.64 5.88,1.88 l 2.04,-3.56 c -2.24,-1.48 -5.08,-2.48 -7.92,-2.48 -4.6,0 -7.8,2.64 -7.8,6.52 0,3.68 2.88,4.96 7.36,6.12 2.36,0.64 4.16,1.16 4.16,2.76 0,1.28 -1.36,2.12 -3.32,2.12 -2.6,0 -4.92,-0.96 -6.92,-2.4 l -2.2,3.4 c 2.48,2 5.88,3.12 9.04,3.12 z"
       style="font-style:normal;font-variant:normal;font-weight:600;font-stretch:normal;font-size:medium;line-height:125%;font-family:Metropolis;-inkscape-font-specification:'Metropolis Semi-Bold';letter-spacing:0px;word-spacing:0px;fill:#ffffff;fill-opacity:1;stroke:none;stroke-width:1px;stroke-linecap:butt;stroke-linejoin:miter;stroke-opacity:1"
       id="path4200"
       inkscape:connector-curvature="0"
       inkscape:export-xdpi="299.75882"
       inkscape:export-ydpi="299.75882" />
    <path
       d="m 70.30063,1038.9575 c 6,0 11.08,-4.96 11.08,-10.84 0,-5.88 -5.08,-10.8 -11.08,-10.8 -6,0 -11.08,4.92 -11.08,10.8 0,5.88 5.08,10.84 11.08,10.84 z m 0,-4.16 c -3.44,0 -6.32,-3.04 -6.32,-6.68 0,-3.6 2.88,-6.64 6.32,-6.64 3.4,0 6.28,3.04 6.28,6.64 0,3.64 -2.88,6.68 -6.28,6.68 z"
       style="font-style:normal;font-variant:normal;font-weight:600;font-stretch:normal;font-size:medium;line-height:125%;font-family:Metropolis;-inkscape-font-specification:'Metropolis Semi-Bold';letter-spacing:0px;word-spacing:0px;fill:#ffffff;fill-opacity:1;stroke:none;stroke-width:1px;stroke-linecap:butt;stroke-linejoin:miter;stroke-opacity:1"
       id="path4202"
       inkscape:connector-curvature="0"
       inkscape:export-xdpi="299.75882"
       inkscape:export-ydpi="299.75882" />
    <path
       d="m 85.65313,1038.4775 4.88,0 0,-27.96 -4.88,0 0,27.96 z"
       style="font-style:normal;font-variant:normal;font-weight:600;font-stretch:normal;font-size:medium;line-height:125%;font-family:Metropolis;-inkscape-font-specification:'Metropolis Semi-Bold';letter-spacing:0px;word-spacing:0px;fill:#ffffff;fill-opacity:1;stroke:none;stroke-width:1px;stroke-linecap:butt;stroke-linejoin:miter;stroke-opacity:1"
       id="path4204"
       inkscape:connector-curvature="0"
       inkscape:export-xdpi="299.75882"
       inkscape:export-ydpi="299.75882" />
    <path
       d="m 105.56562,1034.6375 c -2.96,0 -5.12,-2 -5.759994,-4.84 l 15.639994,0 c 0,-7.64 -3.72,-12.48 -10.12,-12.48 -5.879994,0 -10.51999,4.56 -10.51999,10.76 0,6.36 4.879996,10.88 10.79999,10.88 3,0 6.6,-1.28 8.4,-3.2 l -3.08,-3.2 c -1.16,1.2 -3.44,2.08 -5.36,2.08 z m -0.04,-13 c 2.92,0 4.76,1.84 5.28,4.44 l -10.879994,0 c 0.719994,-2.72 2.919994,-4.44 5.599994,-4.44 z"
       style="font-style:normal;font-variant:normal;font-weight:600;font-stretch:normal;font-size:medium;line-height:125%;font-family:Metropolis;-inkscape-font-specification:'Metropolis Semi-Bold';letter-spacing:0px;word-spacing:0px;fill:#ffffff;fill-opacity:1;stroke:none;stroke-width:1px;stroke-linecap:butt;stroke-linejoin:miter;stroke-opacity:1"
       id="path4206"
       inkscape:connector-curvature="0"
       inkscape:export-xdpi="299.75882"
       inkscape:export-ydpi="299.75882" />
    <path
       d="m 130.95562,1017.3175 c -2.72,0 -5.12,1.32 -6.4,3.24 l 0,-2.76 -4.88,0 0,20.68 4.88,0 0,-13.08 c 0.32,-2.2 2.44,-3.92 5,-3.92 2.56,0 4.36,2 4.36,4.8 l 0,12.2 4.72,0 0,-13.16 c 0,-4.68 -3.16,-8 -7.68,-8 z"
       style="font-style:normal;font-variant:normal;font-weight:600;font-stretch:normal;font-size:medium;line-height:125%;font-family:Metropolis;-inkscape-font-specification:'Metropolis Semi-Bold';letter-spacing:0px;word-spacing:0px;fill:#ffffff;fill-opacity:1;stroke:none;stroke-width:1px;stroke-linecap:butt;stroke-linejoin:miter;stroke-opacity:1"
       id="path4208"
       inkscape:connector-curvature="0"
       inkscape:export-xdpi="299.75882"
       inkscape:export-ydpi="299.75882" />
    <path
       d="m 153.85437,1038.9575 c 3.28,0 6.04,-1.36 8.04,-3.48 l -3.28,-2.84 c -1.16,1.32 -2.92,2.16 -4.72,2.16 -3.4,0 -6.24,-3.04 -6.24,-6.68 0,-3.6 2.84,-6.64 6.24,-6.64 1.76,0 3.48,0.84 4.6,2.08 l 3.28,-2.88 c -1.96,-2.04 -4.72,-3.36 -7.84,-3.36 -6.04,0 -11.12,4.92 -11.12,10.8 0,5.88 5.08,10.84 11.04,10.84 z"
       style="font-style:normal;font-variant:normal;font-weight:600;font-stretch:normal;font-size:medium;line-height:125%;font-family:Metropolis;-inkscape-font-specification:'Metropolis Semi-Bold';letter-spacing:0px;word-spacing:0px;fill:#ffffff;fill-opacity:1;stroke:none;stroke-width:1px;stroke-linecap:butt;stroke-linejoin:miter;stroke-opacity:1"
       id="path4210"
       inkscape:connector-curvature="0"
       inkscape:export-xdpi="299.75882"
       inkscape:export-ydpi="299.75882" />
    <path
       d="m 175.40937,1034.6375 c -2.96,0 -5.12,-2 -5.76,-4.84 l 15.64,0 c 0,-7.64 -3.72,-12.48 -10.12,-12.48 -5.88,0 -10.52,4.56 -10.52,10.76 0,6.36 4.88,10.88 10.8,10.88 3,0 6.6,-1.28 8.4,-3.2 l -3.08,-3.2 c -1.16,1.2 -3.44,2.08 -5.36,2.08 z m -0.04,-13 c 2.92,0 4.76,1.84 5.28,4.44 l -10.88,0 c 0.72,-2.72 2.92,-4.44 5.6,-4.44 z"
       style="font-style:normal;font-variant:normal;font-weight:600;font-stretch:normal;font-size:medium;line-height:125%;font-family:Metropolis;-inkscape-font-specification:'Metropolis Semi-Bold';letter-spacing:0px;word-spacing:0px;fill:#ffffff;fill-opacity:1;stroke:none;stroke-width:1px;stroke-linecap:butt;stroke-linejoin:miter;stroke-opacity:1"
       id="path4212"
       inkscape:connector-curvature="0"
       inkscape:export-xdpi="299.75882"
       inkscape:export-ydpi="299.75882" />
    <circle
       inkscape:export-ydpi="299.75882"
       inkscape:export-xdpi="299.75882"
       r="2.2728431"
       cy="1046.5356"
       cx="107.74239"
       id="path4146"
       style="fill:#fad200;fill-opacity:1;stroke:none" />
    <circle
       inkscape:export-ydpi="299.75882"
       inkscape:export-xdpi="299.75882"
       style="fill:#dd0000;fill-opacity:1;stroke:none"
       id="circle4148"
       cx="99.616112"
       cy="1046.5356"
       r="2.2728431" />
    <circle
       inkscape:export-ydpi="299.75882"
       inkscape:export-xdpi="299.75882"
       r="2.2728431"
       cy="1046.5356"
       cx="91.48983"
       id="circle4150"
       style="fill:#00de00;fill-opacity:1;stroke:none" />
    <circle
       inkscape:export-ydpi="299.75882"
       inkscape:export-xdpi="299.75882"
       style="fill:#0a56ff;fill-opacity:1;stroke:none"
       id="circle4152"
       cx="83.363548"
       cy="1046.5356"
       r="2.2728431" />
    <rect
       inkscape:export-ydpi="299.75882"
       inkscape:export-xdpi="299.75882"
       y="1044.9491"
       x="5.7740107"
       height="2.8735504"
       width="64.766579"
       id="rect4191"
       style="fill:#ffffff;fill-opacity:1;stroke:none" />
    <rect
       style="fill:#ffffff;fill-opacity:1;stroke:none"
       id="rect4193"
       width="64.766579"
       height="2.8735504"
       x="120.51955"
       y="1044.9491"
       inkscape:export-xdpi="299.75882"
       inkscape:export-ydpi="299.75882" />
    <g
       style="font-style:normal;font-weight:normal;font-size:40px;line-height:125%;font-family:sans-serif;letter-spacing:0px;word-spacing:0px;fill:#ffffff;fill-opacity:1;stroke:none;stroke-width:1px;stroke-linecap:butt;stroke-linejoin:miter;stroke-opacity:1"
       id="text4296">
      <path
         d="m 9.9155641,1004.196 c -1.0587499,0 -1.9112498,0.4813 -2.4749997,1.2925 l 0,-1.1275 -1.6774998,0 0,9.4738 1.6774998,0 0,-3.4925 c 0.5637499,0.8112 1.4162498,1.2925 2.4749997,1.2925 1.8837499,0 3.2587499,-1.54 3.2587499,-3.7263 0,-2.1725 -1.375,-3.7125 -3.2587499,-3.7125 z m -0.45375,6.0088 c -1.1824998,0 -2.0074997,-0.9625 -2.0074997,-2.2963 0,-1.3337 0.8249999,-2.2825 2.0074997,-2.2825 1.1962499,0 2.0487499,0.9488 2.0487499,2.2825 0,1.3338 -0.8525,2.2963 -2.0487499,2.2963 z"
         style="font-style:normal;font-variant:normal;font-weight:600;font-stretch:normal;font-size:13.74999809px;font-family:Metropolis;-inkscape-font-specification:'Metropolis Semi-Bold';letter-spacing:-0.49999994px"
         id="path3461" />
      <path
         d="m 17.62904,1011.6348 c 2.062499,0 3.808749,-1.705 3.808749,-3.7263 0,-2.0212 -1.74625,-3.7125 -3.808749,-3.7125 -2.0625,0 -3.80875,1.6913 -3.80875,3.7125 0,2.0213 1.74625,3.7263 3.80875,3.7263 z m 0,-1.43 c -1.1825,0 -2.1725,-1.045 -2.1725,-2.2963 0,-1.2375 0.99,-2.2825 2.1725,-2.2825 1.16875,0 2.158749,1.045 2.158749,2.2825 0,1.2513 -0.989999,2.2963 -2.158749,2.2963 z"
         style="font-style:normal;font-variant:normal;font-weight:600;font-stretch:normal;font-size:13.74999809px;font-family:Metropolis;-inkscape-font-specification:'Metropolis Semi-Bold';letter-spacing:-0.49999994px"
         id="path3463" />
      <path
         d="m 23.939156,1011.4698 1.52625,0 1.5125,-4.8675 1.52625,4.8675 1.526249,0 2.3925,-7.1088 -1.6775,0 -1.47125,4.8538 -1.594999,-4.8675 -1.4025,0 -1.58125,4.8675 -1.485,-4.8538 -1.677499,0 2.406249,7.1088 z"
         style="font-style:normal;font-variant:normal;font-weight:600;font-stretch:normal;font-size:13.74999809px;font-family:Metropolis;-inkscape-font-specification:'Metropolis Semi-Bold';letter-spacing:-0.49999994px"
         id="path3465" />
      <path
         d="m 36.485756,1010.1498 c -1.0175,0 -1.76,-0.6875 -1.98,-1.6638 l 5.376249,0 c 0,-2.6262 -1.27875,-4.29 -3.478749,-4.29 -2.02125,0 -3.61625,1.5675 -3.61625,3.6988 0,2.1862 1.6775,3.74 3.7125,3.74 1.03125,0 2.268749,-0.44 2.887499,-1.1 l -1.05875,-1.1 c -0.39875,0.4125 -1.182499,0.715 -1.842499,0.715 z m -0.01375,-4.4688 c 1.00375,0 1.636249,0.6325 1.814999,1.5263 l -3.739999,0 c 0.2475,-0.935 1.00375,-1.5263 1.925,-1.5263 z"
         style="font-style:normal;font-variant:normal;font-weight:600;font-stretch:normal;font-size:13.74999809px;font-family:Metropolis;-inkscape-font-specification:'Metropolis Semi-Bold';letter-spacing:-0.49999994px"
         id="path3467" />
      <path
         d="m 42.554818,1005.736 0,-1.375 -1.677499,0 0,7.1088 1.677499,0 0,-3.5888 c 0,-1.3475 1.0175,-2.255 2.54375,-2.255 l 0,-1.43 c -1.16875,0 -2.09,0.5913 -2.54375,1.54 z"
         style="font-style:normal;font-variant:normal;font-weight:600;font-stretch:normal;font-size:13.74999809px;font-family:Metropolis;-inkscape-font-specification:'Metropolis Semi-Bold';letter-spacing:-0.49999994px"
         id="path3469" />
      <path
         d="m 49.155189,1010.1498 c -1.0175,0 -1.759999,-0.6875 -1.979999,-1.6638 l 5.376249,0 c 0,-2.6262 -1.27875,-4.29 -3.47875,-4.29 -2.021249,0 -3.616249,1.5675 -3.616249,3.6988 0,2.1862 1.6775,3.74 3.712499,3.74 1.03125,0 2.26875,-0.44 2.8875,-1.1 l -1.05875,-1.1 c -0.39875,0.4125 -1.1825,0.715 -1.8425,0.715 z m -0.01375,-4.4688 c 1.00375,0 1.63625,0.6325 1.815,1.5263 l -3.739999,0 c 0.2475,-0.935 1.003749,-1.5263 1.924999,-1.5263 z"
         style="font-style:normal;font-variant:normal;font-weight:600;font-stretch:normal;font-size:13.74999809px;font-family:Metropolis;-inkscape-font-specification:'Metropolis Semi-Bold';letter-spacing:-0.49999994px"
         id="path3471" />
      <path
         d="m 58.909248,1001.8585 0,3.6025 c -0.56375,-0.7975 -1.41625,-1.265 -2.46125,-1.265 -1.88375,0 -3.25875,1.54 -3.25875,3.7125 0,2.1863 1.375,3.7263 3.25875,3.7263 1.045,0 1.8975,-0.4675 2.46125,-1.265 l 0,1.0862 1.677499,0 0,-9.5975 -1.677499,0 z m -2.0075,8.3463 c -1.19625,0 -2.04875,-0.9625 -2.04875,-2.2963 0,-1.3337 0.8525,-2.2825 2.04875,-2.2825 1.1825,0 2.0075,0.9488 2.0075,2.2825 0,1.3338 -0.825,2.2963 -2.0075,2.2963 z"
         style="font-style:normal;font-variant:normal;font-weight:600;font-stretch:normal;font-size:13.74999809px;font-family:Metropolis;-inkscape-font-specification:'Metropolis Semi-Bold';letter-spacing:-0.49999994px"
         id="path3473" />
      <path
         d="m 69.563017,1004.196 c -1.058749,0 -1.911249,0.4813 -2.474999,1.2925 l 0,-3.63 -1.6775,0 0,9.5975 1.6775,0 0,-1.1137 c 0.56375,0.8112 1.41625,1.2925 2.474999,1.2925 1.88375,0 3.25875,-1.54 3.25875,-3.7263 0,-2.1725 -1.375,-3.7125 -3.25875,-3.7125 z m -0.45375,6.0088 c -1.182499,0 -2.007499,-0.9625 -2.007499,-2.2963 0,-1.3337 0.825,-2.2825 2.007499,-2.2825 1.19625,0 2.04875,0.9488 2.04875,2.2825 0,1.3338 -0.8525,2.2963 -2.04875,2.2963 z"
         style="font-style:normal;font-variant:normal;font-weight:600;font-stretch:normal;font-size:13.74999809px;font-family:Metropolis;-inkscape-font-specification:'Metropolis Semi-Bold';letter-spacing:-0.49999994px"
         id="path3475" />
      <path
         d="m 75.282744,1013.9448 c 1.0725,-0.014 1.8975,-0.6325 2.43375,-1.98 l 3.01125,-7.6038 -1.7325,0 -1.9525,5.3075 -2.07625,-5.3075 -1.773749,0 3.011249,7.1638 -0.3025,0.6325 c -0.20625,0.3437 -0.50875,0.4675 -0.9075,0.4675 -0.26125,0 -0.605,-0.096 -0.9075,-0.2613 l -0.357499,1.21 c 0.426249,0.2338 1.017499,0.3713 1.553749,0.3713 z"
         style="font-style:normal;font-variant:normal;font-weight:600;font-stretch:normal;font-size:13.74999809px;font-family:Metropolis;-inkscape-font-specification:'Metropolis Semi-Bold';letter-spacing:-0.49999994px"
         id="path3477" />
    </g>
  </g>
</svg>
